<svg xmlns="http://www.w3.org/2000/svg" viewBox="0 0 1871.87 1871.87" role="img" aria-label="Anthro SoCal logo"><path fill="currentColor" d="M321.228 1366.558c-6.037-4.664-10.73-5.79-24.142-5.577-23.468.146-27.827.208-28.833 1.205-1.005.388-3.685 7.609-6.364 15.438-7.705 22.85-25.794 71.515-33.164 89.167-14.07 35.248-42.55 92.388-57.295 115.22-3.016 4.817-5.697 8.996-5.697 9.3 0 .913 9.725 5.267 14.083 6.422 7.042 1.842 17.099.084 21.792-3.655 4.357-3.407 12.4-15.945 24.462-38.25l7.372-13.393 22.127-1.25c12.405-.737 22.464-.973 22.464-.67.335-.028 1.008 9.344 1.682 20.238.339 11.226 1.012 20.598 1.682 21.15 1.007 1.74 11.401 3.91 19.448 3.842 7.376-.315 8.046-.371 13.41-4.167l5.698-4.13-.675-11.5c-2.695-43.878-1.706-96.277 2.972-148.377 1.335-15.32 2.336-32.437 2.334-38.216-.003-10.037-.338-10.313-3.356-12.797m-41.212 86.192c-.332 7.937-.998 22.592-1.33 32.657l-.665 18.306-9.052.76c-5.03.119-10.729.293-12.74.158l-3.688-.299 6.365-14.223c3.686-7.913 9.716-22.41 13.736-32.481 4.02-9.767 7.37-18.26 7.706-18.593.334-.332.001 5.78-.332 13.715m216.574-23.661c-2.015-10.172-15.429-17.563-30.515-16.295-5.699.478-9.387 1.396-12.404 3.17-6.704 3.909-19.775 17.781-34.856 37.298-7.709 10.076-14.076 17.91-14.076 17.302s2.344-9.93 5.358-20.829l5.023-19.888-3.018-2.787c-7.043-6.101-19.784-8.073-28.835-4.576l-4.694 1.916-10.716 39.528c-6.028 21.798-13.73 51.643-17.413 66.249-3.348 14.577-7.702 30.758-9.377 35.766-3.349 11.23-3.683 13.693-.665 14.655 1.006.524 8.046.237 15.422-.078 13.076-1.098 13.746-1.458 17.098-4.173 2.01-1.69 5.697-6.257 8.043-10.105 13.069-20.867 38.202-58.869 46.245-70.19 11.394-15.86 23.459-31.474 23.794-31.198s-5.692 22.682-13.06 49.762c-7.367 27.385-13.394 51.312-13.393 53.44 0 3.043.671 3.29 6.036 4.968a100 100 0 0 0 8.717 1.703c8.383 1.424 17.434-1.768 21.791-7.305 1.005-1.606 5.024-13.501 8.708-26.586 3.349-13.056 9.377-34.244 12.726-46.692 3.683-12.78 7.702-27.413 9.041-32.696 3.685-12.475 5.692-27.548 5.02-32.36m97.901-21.907c1.006-1.606 3.016-5.729 4.02-9.159 1.676-5.007 1.675-7.137.667-12.527-.671-3.593-2.014-7.74-3.02-8.871-1.678-2.292-2.347-2.54-9.388-1.34-4.024.64-7.711.951-7.711.343-.671-.553 1.004-6.473 3.013-13.333 2.345-6.888 4.019-13.416 4.018-14.937-.002-5.474-12.072-10.848-23.472-9.891-11.063.93-12.07 1.622-15.418 12.549-10.049 30.651-9.044 28.438-12.731 29.356-2.011.473-9.723 1.425-17.099 2.044l-13.745 1.154-3.016 6.336q-7.036 15.191.008 24.637l3.019 4.005 11.4-.957c6.37-.535 11.398-.653 11.398-.349s-2.343 9.32-5.693 20.248c-6.699 22.462-17.08 61.355-21.432 80.578-5.692 26.028-6.693 44.36-2.666 53.148 2.014 3.784 8.05 7.231 16.095 8.382 2.683.686 9.053.456 13.746.062 7.377-.925 9.053-1.674 12.74-4.72 5.698-4.737 6.033-6.286 1.003-7.992-5.03-2.011-6.707-5.825-6.711-18.903-.005-14.6 10.71-58.082 28.46-117.363l5.025-16.847 12.405-1.346c11.733-1.289 12.739-1.374 15.085-4.307m125.717-7.82c-4.36-4.197-14.754-7.582-24.142-7.402-10.058.236-17.767 3.013-27.488 10.217-7.375 5.485-21.451 20.354-28.153 29.739-2.346 2.934-4.023 5.204-4.358 4.927-.67-.552 16.744-64.975 23.443-87.134 3.013-9.985 2.678-11.782-.341-14.267-6.371-4.635-11.736-6.01-21.123-5.221-6.37.535-9.388 1.092-10.393 2.393-4.022 3.988-33.492 112.92-50.567 185.83-4.353 19.225-8.707 35.711-9.377 36.983-1.005 1.606-.334 2.462 5.367 4.112 9.723 3.138 17.434 2.795 26.15-.676 11.733-4.33 13.409-6.296 17.763-17.915 7.035-18.537 30.156-61.844 46.241-85.703 7.038-10.323 20.108-26.629 21.114-26.105.335.275-3.349 13.055-7.702 28.63-13.397 45.227-26.121 94.658-24.446 94.517.336-.028 4.024.879 8.383 2.033 4.693.823 10.394 1.56 12.74 1.667 4.359-.365 12.406-4.082 14.415-6.988.67-.665 4.02-10.983 7.37-22.519 3.013-11.507 8.707-30.843 12.39-43.014 19.762-64.926 21.434-75.407 12.714-84.105m147.863-7.55c-1.007-5.085-8.049-9.97-16.766-12.279-6.036-1.623-9.054-1.674-17.435-.665-17.099 2.348-23.802 7.473-43.24 32.83-5.027 6.505-9.048 11.71-9.383 11.434 0-.304 1.339-5.588 3.349-12.145 1.674-6.527 3.348-13.055 3.347-14.576 0-3.65-4.695-7.514-11.737-9.355-6.706-1.87-20.116-1.048-22.463 1.582-1.005.997-3.35 7.885-5.358 15.353-3.685 14.91-31.145 116.98-35.497 133.162-1.675 5.617-2.344 10.234-1.673 10.483.67.247 3.687 1.21 7.04 1.84 3.353.936 9.388 1.342 13.411 1.004 13.745-1.154 17.433-5.114 32.176-34.334 10.72-21.888 18.763-35.642 32.168-56.234 7.372-11.57 25.469-36.813 26.475-36.897 0 0-3.684 13.692-8.037 30.178-5.358 19.916-7.702 31.063-7.366 32.86 1.007 3.26 9.725 6.787 19.784 8.072 6.034.405 7.04.321 12.068-2.23 2.682-1.442 5.364-3.493 5.699-4.13 0-.608 1.675-6.831 3.348-13.359 1.675-6.528 6.364-22.738 10.047-36.127 8.707-30.843 11.052-41.685 10.043-46.467m69.728-15.588c-9.723.208-23.469 4.708-30.843 10.194-21.116 16.068-39.546 48.64-45.236 80.75-4.686 25.031-4.346 36.561 1.022 48.886 4.696 10.858 14.757 17.313 30.516 19.944 14.417 2.136 26.82-.731 39.222-9.68 12.404-8.646 20.78-18.779 29.494-35.326 17.758-34.037 22.775-75.216 12.039-96.214-6.038-11.355-20.457-18.966-36.214-18.554m1.364 73.797c-4.017 21.932-15.407 48.134-26.803 61.866-3.015 3.6-6.033 6.59-6.367 6.618-1.342.112-5.703-9.255-7.382-15.501-1.678-7.16-.677-24.884 2.336-37 3.348-13.664 6.699-21.854 14.405-36.188 6.702-12.73 20.106-30.888 22.118-30.144 3.69 1.82 4.705 34.584 1.693 50.349m247.088-12.537c-5.367-9.587-19.117-20.902-38.565-31.436-37.223-20.599-38.229-21.427-38.232-32.072-.003-10.038 11.727-26.23 29.155-41.381 18.772-15.871 23.798-18.118 29.836-13.454 3.354 3.063 3.688 3.642 3.69 12.159.006 15.816-5.354 29.346-16.748 42.165-3.017 3.294-5.699 6.865-5.699 7.473.001 2.13 10.062 10.106 15.426 12.088 5.03 2.011 12.741 1.972 17.435-.247 4.021-1.858 13.407-12.075 16.757-18.136 10.053-19.094 10.716-43.178 1.659-58.842-4.361-7.542-11.74-15.135-19.787-19.935-22.467-13.32-40.907-9.947-70.069 13.792-29.16 23.74-41.893 46.71-36.857 67.274 3.356 14.318 11.07 20.362 45.943 37.204 11.066 5.458 22.131 11.524 24.815 13.428 17.437 14.352 11.075 37.394-15.741 55.463-14.414 9.726-21.788 13.387-30.84 14.756-7.711 1.256-8.047.98-12.07-2.03-10.061-8.583-6.714-28.33 9.036-51.248 2.346-3.238 5.362-7.142 6.368-7.835 2.68-2.657 2.345-5.063-2.015-8.651-5.031-4.444-12.743-6.838-21.795-6.687l-7.376.012-5.697 5.953c-10.725 11.242-19.772 29.339-21.109 41.923-2.338 24.833 19.125 45.233 52.653 50.632 17.1 2.82 28.163.372 47.941-10.11 25.14-13.061 35.197-22.118 42.567-37.64 4.021-7.943 4.356-8.883 3.683-17.952-.339-7.879-1.01-10.56-4.364-16.666m90.835-89.75c-9.723.207-23.468 4.707-30.843 10.193-21.116 16.068-39.546 48.641-45.236 80.752-4.686 25.029-4.346 36.56 1.022 48.883 4.697 10.86 14.758 17.315 30.516 19.946 14.417 2.135 26.82-.732 39.223-9.68 12.403-8.647 20.78-18.78 29.493-35.327 17.759-34.037 22.775-75.215 12.04-96.214-6.04-11.355-20.458-18.965-36.215-18.554m1.364 73.795c-4.016 21.933-15.407 48.136-26.803 61.867-3.015 3.6-6.032 6.59-6.367 6.618-1.342.113-5.703-9.254-7.38-15.5-1.68-7.16-.68-24.885 2.334-37 3.348-13.664 6.699-21.855 14.405-36.189 6.702-12.728 20.107-30.888 22.118-30.143 3.69 1.818 4.705 34.583 1.693 50.347m186.744-16.593c-15.756 1.627-25.141 6.673-28.827 15.803-4.69 11.648-18.095 32.545-28.148 43.426-2.682 2.963-8.38 7.396-12.403 9.862-7.375 3.965-8.045 4.022-12.404 3.171-4.358-.851-5.365-1.983-9.055-8.06-12.077-21.19-10.077-59.074 5.332-102.646 12.729-35.44 39.539-76.624 55.628-85.275l4.023-2.162 2.348 4.061c4.025 6.354 6.711 17.382 7.05 27.39.336 5.142 1.344 9.926 2.014 10.781 2.349 2.236 17.1 5.864 22.465 5.414 2.346-.197 6.705-1.78 10.056-3.582l5.365-3.187-.004-10.037c-.006-19.771-7.72-32.81-24.488-41.136-18.107-8.82-43.251-8.23-62.359 1.587-8.716 4.686-22.792 18.339-31.507 30.629-19.1 27.153-37.191 74.296-43.55 112.546-4.014 24.67-1.324 50.907 6.727 64.221 7.38 12.46 23.14 19.957 43.256 20.397 33.527.835 63.025-18.675 86.482-57.144 6.033-10.24 15.413-29.887 15.412-32.928 0-2.129-7.043-3.667-13.413-3.131m153.537-70.988c.334-3.678-.336-4.838-3.355-7.018-8.719-6.263-27.493-5.904-34.532.77-1.677 1.662-3.353 2.108-5.029 1.64-9.053-2.282-30.174.708-40.9 6.172-8.046 3.717-18.77 14.046-25.809 24.066-18.432 27.097-33.168 75.48-29.473 98.59 1.68 10.504 4.699 15.118 13.08 18.672 8.385 3.86 19.785 5.639 26.154 4.192 9.387-2.005 18.773-8.573 27.487-19.342 1.003-1.301 3.35-5.453 5.696-9.907l2.012.136c-2.345 8.41-4.688 18.643-4.688 20.163.001 2.129 8.048 6.016 15.424 7.525 6.707 1.263 10.73.925 15.423-1.294 6.033-2.94 6.369-3.273 8.378-13.479 2.342-12.362 1.338-10.15 17.075-74.128 7.031-28.877 13.057-54.324 13.057-56.758m-92.837 99.956c-4.023 7.03-7.373 12.483-8.043 12.538-2.347.198 3.68-26.771 8.704-41.792 8.039-22.27 19.431-41.78 30.157-52.416 6.033-6.285 12.737-9.89 14.75-8.233 1.34.799-30.155 63.364-45.568 89.903m145.778-190.48c-7.375.62-8.046 2.197-16.753 32.736-39.519 138.062-43.873 149.073-47.557 167.024-2.677 12.087-3.345 22.181-2.003 26.022 1.008 2.349 7.713 5.436 14.42 6.394 7.376.9 14.75-.631 19.443-4.067 4.024-3.075 4.023-3.379 3.351-8.798-1.009-8.735 4.348-30.172 20.09-83.506 3.684-11.868 16.076-51.84 22.44-74.883 6.363-23.347 12.726-44.867 13.73-47.69l1.675-5.311-3.019-2.788c-6.035-4.97-13.748-6.754-25.817-5.132M1089.66 1028.37l107.98-117.43v-249.3l-107.98-91.55-161.72 14.15V449.39l107.99-9.45v53.73l161.71-14.15V364.41L1089.66 273l-215.45 18.85-107.99 117.43v236.84l107.99 91.72 161.72-14.15v147.67l-107.99 9.45v-54.26L766.22 840.7v115.36l107.99 91.16zm623.17-310.03V564.66l-120.28-101.53-239.97 20.99-120.28 114.52v506.03l119.18 101.07 242.77-20.72 118.58-118.85V894.65l-180.12 15.76v115.1l-120.28 10.52v-406.3l120.28-10.52V734.1zm-939.52 404.39-.012.003.002.007zM452.19 994.18c.65-8.52.57-17.81.35-27.95 5.38 10.02 11.43 20.21 17.83 29.06l17.19 23.76-1.35-29.3c-.99-21.47.11-49.71 3.29-73.43 3.89 10.66 8.16 21.26 12.55 32.16 10.18 25.24 20.7 51.33 28.91 83.92l4.8 19.07 10.96-16.32c1-1.48 18.47-27.86 25.72-59.58 38.55 97.36 42.01 188.29 42.01 188.29l158.848-41.127L622.06 422.96l-239.97 20.99-171.22 825.25 189.36-49.31s43.44-114.78 51.96-225.71m49.9-330.58s2.26 156.25 56.14 278.89l-.53.05c2.35 23.24-7.36 48.51-15.48 64.96l-.01-.01c-7.47-24.74-16.11-46.16-23.92-65.54-8.53-21.15-16.59-41.13-21.99-62.22l-7.36-28.77-9.42 28.17c-6.54 19.55-10.06 51.16-10.95 79.92-7.18-13.29-13.22-26.54-17.15-35.65-.85-58.46 3.68-140.02 50.67-259.8m610.1 388.68-102.01 110.62-63.57-53.6-744.87 194.57 1096.74-93.61z"/></svg>
